<svg id="Group_119" data-name="Group 119" xmlns="http://www.w3.org/2000/svg" width="20.947" height="20.947" viewBox="0 0 20.947 20.947">
  <path id="Path_151" data-name="Path 151" d="M18.247,1.636H16.365V.655a.655.655,0,1,0-1.309,0v.982H5.891V.655a.655.655,0,0,0-1.309,0v.982H2.7A2.7,2.7,0,0,0,0,4.337v13.91a2.7,2.7,0,0,0,2.7,2.7H18.247a2.7,2.7,0,0,0,2.7-2.7V4.337A2.7,2.7,0,0,0,18.247,1.636ZM2.7,2.946H4.582V3.6a.655.655,0,0,0,1.309,0V2.946h9.164V3.6a.655.655,0,0,0,1.309,0V2.946h1.882a1.393,1.393,0,0,1,1.391,1.391V5.891H1.309V4.337A1.393,1.393,0,0,1,2.7,2.946ZM18.247,19.638H2.7a1.393,1.393,0,0,1-1.391-1.391V7.2H19.638V18.247A1.393,1.393,0,0,1,18.247,19.638Z" fill="#d12026"/>
</svg>
