<svg xmlns="http://www.w3.org/2000/svg" width="75.085" height="67.272" viewBox="0 0 75.085 67.272">
  <g id="diet" transform="translate(0 -26.637)">
    <g id="Group_29" data-name="Group 29" transform="translate(23.083 50.782)">
      <g id="Group_28" data-name="Group 28">
        <path id="Path_18" data-name="Path 18" d="M163.351,192.393a3.423,3.423,0,0,0-5.948,2.251,1.1,1.1,0,0,0,1.081,1.118h.019a1.1,1.1,0,0,0,1.1-1.081,1.221,1.221,0,0,1,1.244-1.2,1.208,1.208,0,0,1,.881.4,1.1,1.1,0,1,0,1.624-1.484Z" transform="translate(-157.402 -191.28)" fill="#fbc90b"/>
      </g>
    </g>
    <g id="Group_31" data-name="Group 31" transform="translate(28.977 53.569)">
      <g id="Group_30" data-name="Group 30" transform="translate(0 0)">
        <path id="Path_19" data-name="Path 19" d="M203.5,212.193a3.142,3.142,0,0,0-5.837.139,1.1,1.1,0,1,0,2.062.765.946.946,0,0,1,1.212-.557.929.929,0,0,1,.538.513,1.1,1.1,0,0,0,2.025-.861Z" transform="translate(-197.594 -210.283)" fill="#fbc90b"/>
      </g>
    </g>
    <g id="Group_33" data-name="Group 33" transform="translate(39.059 45.417)">
      <g id="Group_32" data-name="Group 32">
        <path id="Path_20" data-name="Path 20" d="M269.252,155.015a1.1,1.1,0,0,0-1.555,0l-1.037,1.039a1.1,1.1,0,0,0,1.557,1.554l1.037-1.039A1.1,1.1,0,0,0,269.252,155.015Z" transform="translate(-266.339 -154.693)" fill="#fbc90b"/>
      </g>
    </g>
    <g id="Group_35" data-name="Group 35" transform="translate(32.564 59.937)">
      <g id="Group_34" data-name="Group 34">
        <path id="Path_21" data-name="Path 21" d="M224.615,253.709h-1.466a1.1,1.1,0,1,0,0,2.2h1.466a1.1,1.1,0,1,0,0-2.2Z" transform="translate(-222.049 -253.709)" fill="#fbc90b"/>
      </g>
    </g>
    <g id="Group_37" data-name="Group 37" transform="translate(43.803 59.937)">
      <g id="Group_36" data-name="Group 36">
        <path id="Path_22" data-name="Path 22" d="M301.258,253.709h-1.466a1.1,1.1,0,1,0,0,2.2h1.466a1.1,1.1,0,1,0,0-2.2Z" transform="translate(-298.692 -253.709)" fill="#fbc90b"/>
      </g>
    </g>
    <g id="Group_39" data-name="Group 39" transform="translate(0 26.637)">
      <g id="Group_38" data-name="Group 38">
        <path id="Path_23" data-name="Path 23" d="M75.05,79.769l-.286-1.546a2.087,2.087,0,0,0-2.43-1.67L66.5,77.624l2.641-1.765a2.078,2.078,0,0,0,.657-2.753L69,71.691a2.08,2.08,0,0,0-2.089-1.042,27.821,27.821,0,0,0,.446-4.967A1.839,1.839,0,0,0,66.265,64a8.434,8.434,0,0,0,.067-6.382,1.335,1.335,0,0,0-.746-.748,8.367,8.367,0,0,0-3.109-.6q-.2,0-.408.01a5.8,5.8,0,0,0-6.986-5.4,9.063,9.063,0,0,0-.513-4.841,1.352,1.352,0,0,0-.76-.767,9.04,9.04,0,0,0-8.171.749,10.878,10.878,0,0,0-2.59-4.144,1.867,1.867,0,0,0-2.643,0L35.08,47.225a5.528,5.528,0,0,0-3.69-1.4,5.563,5.563,0,0,0-3.971,1.667,5.528,5.528,0,0,0-4.1-.292V43.082a5.193,5.193,0,0,0-5.092-5.19V35.56a1.835,1.835,0,0,0,1.52-1.8V28.47a1.835,1.835,0,0,0-1.833-1.833H8.968A1.835,1.835,0,0,0,7.135,28.47v5.285a1.835,1.835,0,0,0,1.52,1.8v2.332a5.192,5.192,0,0,0-5.092,5.19v32.1A10.506,10.506,0,0,0,0,82.993C0,89.013,5.283,93.91,11.777,93.91L55.8,93.9a5.034,5.034,0,0,0,4.982-5.821l8.793,1.58a2.1,2.1,0,0,0,.37.033,2.085,2.085,0,0,0,2.064-1.776l.238-1.6a2.079,2.079,0,0,0-1.6-2.337l-3.1-.711,5.825-1.07a2.083,2.083,0,0,0,1.674-2.427ZM62.476,58.475a6.168,6.168,0,0,1,1.939.311,6.229,6.229,0,0,1-.526,5.058H60.926l.945-.948a1.1,1.1,0,0,0-1.557-1.554l-.5.5a5.1,5.1,0,0,0-1.182-2.031A6.15,6.15,0,0,1,62.476,58.475Zm-6.2-5.511a3.612,3.612,0,0,1,3.6,3.613c0,.037,0,.073,0,.11a8.357,8.357,0,0,0-3.14,1.862c-.145-.055-.292-.106-.443-.148a5.1,5.1,0,0,0-3.04-3.782A3.6,3.6,0,0,1,56.274,52.964ZM50.46,46.837a6.813,6.813,0,0,1,2.189.36,6.891,6.891,0,0,1-.272,5.08,5.841,5.841,0,0,0-1.409,1.954,5.19,5.19,0,0,0-.587.067,5.136,5.136,0,0,0-2.338,1.066,5.821,5.821,0,0,0-.832-1.155l2.522-2.528a1.1,1.1,0,0,0-1.557-1.554L45.418,52.89a5.749,5.749,0,0,0-1.687-.5,6.864,6.864,0,0,1,6.728-5.552ZM42.032,63.844h-.953a1.1,1.1,0,0,0-2.046,0H37.91a1.1,1.1,0,0,0-1.715-1.351l-1.037,1.039a1.1,1.1,0,0,0-.217.313H32.7a8.7,8.7,0,0,1-1.411-4.439H48.741a8.7,8.7,0,0,1-1.411,4.439H45a1.1,1.1,0,0,0-.217-.313l-1.037-1.039a1.1,1.1,0,0,0-1.715,1.352Zm-2.558-6.639a3.6,3.6,0,0,1,6.954,0H39.474Zm2.249-13.524A8.7,8.7,0,0,1,43.8,47.565a9.059,9.059,0,0,0-1.4,2,1.093,1.093,0,0,0-.573-.162H40.365a1.1,1.1,0,0,0,0,2.2h1.286a9.107,9.107,0,0,0-.169.921,5.753,5.753,0,0,0-1.244.486,5.552,5.552,0,0,0-3.385-2.586l0-.009a5.568,5.568,0,0,0-.442-1.409ZM21.84,53.606a3.32,3.32,0,0,1-.145-.551,3.357,3.357,0,0,1,2.732-3.873,3.393,3.393,0,0,1,.58-.05,3.324,3.324,0,0,1,2,.668,1.1,1.1,0,0,0,1.575-.273,3.33,3.33,0,0,1,2.224-1.456,3.393,3.393,0,0,1,.581-.05,3.336,3.336,0,0,1,3.293,2.772,3.371,3.371,0,0,1,.049.57,1.1,1.1,0,0,0,1,1.094A3.347,3.347,0,0,1,38.5,54.428a5.8,5.8,0,0,0-1.271,2.777H30.954a1.87,1.87,0,0,0-1.728,1.163,8.393,8.393,0,0,0-7.821-.849,1.333,1.333,0,0,0-.745.747,8.427,8.427,0,0,0-.513,1.955,3.347,3.347,0,0,1,1.119-5.246A1.1,1.1,0,0,0,21.84,53.606Zm3.279,9.937.3.3H22.777a6.232,6.232,0,0,1-.2-4.411,6.188,6.188,0,0,1,6.767,2,10.866,10.866,0,0,0,.842,2.409H28.527l-1.85-1.855a1.1,1.1,0,0,0-1.557,1.554Zm-4.684.3H16.514a3.618,3.618,0,0,1,1.705-2.509A5.53,5.53,0,0,0,20.225,63,8.507,8.507,0,0,0,20.435,63.844ZM9.335,28.837h8.211v4.552H9.335Zm6.691,6.752v2.3H10.855v-2.3ZM5.763,47.542h7.142a1.1,1.1,0,0,0,0-2.2H5.763V43.082A2.991,2.991,0,0,1,8.746,40.09h9.39a2.991,2.991,0,0,1,2.983,2.992v2.261H19.065a1.1,1.1,0,0,0,0,2.2h2.054v.976a5.544,5.544,0,0,0-1.591,4.911l0,.011a5.558,5.558,0,0,0-2.33,5.523c.022.126.049.25.079.373a5.832,5.832,0,0,0-1.466,1.152H5.763Zm0,15.147h8.772a5.77,5.77,0,0,0-.239,1.155H14.11a1.839,1.839,0,0,0-1.836,1.838,27.833,27.833,0,0,0,.477,5.138c-.316-.025-.64-.039-.97-.039a10.023,10.023,0,0,0-3.568.594c-1.485.586-1.9,1.419-1.985,1.995-.157.078-.312.161-.465.246V62.689ZM19.69,76.2a4.164,4.164,0,0,1,.779.781h-.041a6.834,6.834,0,0,1-3.013-.955,7.927,7.927,0,0,1-1.262-.857,1.1,1.1,0,0,0-1.422,0,7.881,7.881,0,0,1-1.261.856,6.834,6.834,0,0,1-3.013.955h-.041a4.159,4.159,0,0,1,.779-.781,1.1,1.1,0,0,0-.559-1.951,5.255,5.255,0,0,1-2.07-.6,6.265,6.265,0,0,1,3.216-.671,6.856,6.856,0,0,1,3.123.611,1.1,1.1,0,0,0,1.077,0,6.859,6.859,0,0,1,3.123-.611,6.264,6.264,0,0,1,3.216.671,5.251,5.251,0,0,1-2.07.6A1.1,1.1,0,0,0,19.69,76.2Zm-2.2,13.387.038.2a5.009,5.009,0,0,0,.792,1.918H11.777C6.5,91.71,2.2,87.8,2.2,82.993a8.64,8.64,0,0,1,4.963-7.635,4.726,4.726,0,0,0,1.265.648,2.606,2.606,0,0,0-.371,1.087,1.792,1.792,0,0,0,.437,1.356,2.5,2.5,0,0,0,1.962.732,9.084,9.084,0,0,0,4.079-1.231q.481-.266.907-.56.425.293.907.56a9.087,9.087,0,0,0,4.079,1.23h0a2.5,2.5,0,0,0,1.962-.732,1.791,1.791,0,0,0,.437-1.356,2.606,2.606,0,0,0-.371-1.087,4.735,4.735,0,0,0,1.265-.648,8.9,8.9,0,0,1,4.714,5.659l-7.779,2.955A5.029,5.029,0,0,0,17.49,89.588Zm40.5,1.087A2.846,2.846,0,0,1,55.8,91.7H54.644L53.923,87.8a1.1,1.1,0,0,0-2.163.4l.647,3.495H48.623l-.488-2.633a1.1,1.1,0,0,0-2.163.4l.414,2.234-8.8,0-.663-3.577a1.1,1.1,0,0,0-2.163.4l.589,3.177-12.853,0h0a2.844,2.844,0,0,1-2.8-2.319l-.038-.2a2.83,2.83,0,0,1,1.785-3.158l4.323-1.642.322,1.738a1.1,1.1,0,0,0,1.08.9,1.115,1.115,0,0,0,.2-.019,1.1,1.1,0,0,0,.881-1.282l-.395-2.131,6.417-2.438a1.1,1.1,0,0,0-.781-2.056L30.5,80.232a11.146,11.146,0,0,0-5.843-6.862c-.09-.576-.5-1.409-1.985-1.995a10.023,10.023,0,0,0-3.568-.594,11.158,11.158,0,0,0-2.561.285V70.4a1.1,1.1,0,0,0-1.779-.864,25.694,25.694,0,0,1-.287-3.494H50.3a1.1,1.1,0,1,0,0-2.2h-.45a10.888,10.888,0,0,0,1.1-4.769,1.871,1.871,0,0,0-1.689-1.861,2.9,2.9,0,0,1,1.5-.75,2.967,2.967,0,0,1,.507-.044,2.906,2.906,0,0,1,2.869,2.415,2.942,2.942,0,0,1,.043.5,1.1,1.1,0,0,0,1,1.094,2.916,2.916,0,0,1,2.615,2.4,2.875,2.875,0,0,1-.008,1.013h-1.18a1.1,1.1,0,1,0,0,2.2h8.549a25.352,25.352,0,0,1-.772,5.9l-5.961,3.519a5.049,5.049,0,0,0-6.648-3.313L39.5,76.814a1.1,1.1,0,0,0,.781,2.056l1.617-.614.5,2.711a1.1,1.1,0,0,0,1.08.9,1.114,1.114,0,0,0,.2-.019,1.1,1.1,0,0,0,.881-1.282l-.575-3.1,8.569-3.255a2.855,2.855,0,0,1,2.414.177,2.826,2.826,0,0,1,1.4,1.955L58.6,88.352A2.813,2.813,0,0,1,57.988,90.675Zm3.924-8.609a1.1,1.1,0,0,0-.047,2.154L70.054,86.1l-.2,1.373-9.493-1.706-1.484-8.012,8.269-4.881.689,1.22-6.974,4.662a1.1,1.1,0,0,0,.81,2l10.956-2.012.244,1.317Z" transform="translate(0 -26.637)" fill="#fbc90b"/>
      </g>
    </g>
  </g>
</svg>
