<svg xmlns="http://www.w3.org/2000/svg" width="31.915" height="23.438" viewBox="0 0 31.915 23.438">
  <g id="email_2_" data-name="email (2)" transform="translate(0 -68)">
    <g id="Group_21" data-name="Group 21" transform="translate(0 68)">
      <g id="Group_20" data-name="Group 20">
        <path id="Path_14" data-name="Path 14" d="M28.175,68H3.74A3.744,3.744,0,0,0,0,71.74V87.7a3.744,3.744,0,0,0,3.74,3.74H28.175a3.744,3.744,0,0,0,3.74-3.74V71.74A3.744,3.744,0,0,0,28.175,68Zm1.247,19.7a1.248,1.248,0,0,1-1.247,1.247H3.74A1.248,1.248,0,0,1,2.493,87.7V71.74A1.248,1.248,0,0,1,3.74,70.493H28.175a1.248,1.248,0,0,1,1.247,1.247Z" transform="translate(0 -68)" fill="#fff"/>
      </g>
    </g>
    <g id="Group_23" data-name="Group 23" transform="translate(1.217 69.554)">
      <g id="Group_22" data-name="Group 22">
        <path id="Path_15" data-name="Path 15" d="M47.515,92.937l-13.252,9.857L21.01,92.937l-1.488,2L34.263,105.9,49,94.938Z" transform="translate(-19.522 -92.937)" fill="#fff"/>
      </g>
    </g>
  </g>
</svg>
