<svg xmlns="http://www.w3.org/2000/svg" width="24" height="24" viewBox="0 0 24 24">
  <g id="Group_54" data-name="Group 54" transform="translate(0.062 0.062)">
    <circle id="Ellipse_13" data-name="Ellipse 13" cx="12" cy="12" r="12" transform="translate(-0.062 -0.062)" fill="#fff"/>
    <g id="instagram_1_" data-name="instagram (1)" transform="translate(7.414 7.071)">
      <path id="Path_36" data-name="Path 36" d="M6.457,0H2.935A2.935,2.935,0,0,0,0,2.935V6.457A2.935,2.935,0,0,0,2.935,9.392H6.457A2.935,2.935,0,0,0,9.392,6.457V2.935A2.935,2.935,0,0,0,6.457,0ZM8.511,6.457A2.057,2.057,0,0,1,6.457,8.511H2.935A2.057,2.057,0,0,1,.88,6.457V2.935A2.057,2.057,0,0,1,2.935.88H6.457A2.057,2.057,0,0,1,8.511,2.935Z" fill="#161616"/>
      <path id="Path_37" data-name="Path 37" d="M130.348,128a2.348,2.348,0,1,0,2.348,2.348A2.348,2.348,0,0,0,130.348,128Zm0,3.815a1.467,1.467,0,1,1,1.467-1.467A1.469,1.469,0,0,1,130.348,131.815Z" transform="translate(-125.652 -125.652)" fill="#161616"/>
      <circle id="Ellipse_15" data-name="Ellipse 15" cx="0.313" cy="0.313" r="0.313" transform="translate(6.907 1.859)" fill="#161616"/>
    </g>
  </g>
</svg>
