<svg xmlns="http://www.w3.org/2000/svg" width="14.438" height="27.347" viewBox="0 0 14.438 27.347">
  <g id="hotel_1_" data-name="hotel (1)" transform="translate(-11.169)">
    <path id="Path_147" data-name="Path 147" d="M226,390h3.2v6.516H226Z" transform="translate(-209.224 -369.17)" fill="#d12026"/>
    <path id="Path_148" data-name="Path 148" d="M121.023,27.347h4V19.228h6.409v8.119h4.024V0H121.023ZM132.238,3.2h1.6v1.6h-1.6Zm0,3.2h1.6v1.6h-1.6Zm0,3.2h1.6v1.6h-1.6Zm0,3.2h1.6v1.6h-1.6Zm0,3.2h1.6v1.6h-1.6ZM129.033,3.2h1.6v1.6h-1.6Zm0,3.2h1.6v1.6h-1.6Zm0,3.2h1.6v1.6h-1.6Zm0,3.2h1.6v1.6h-1.6Zm0,3.2h1.6v1.6h-1.6ZM125.829,3.2h1.6v1.6h-1.6Zm0,3.2h1.6v1.6h-1.6Zm0,3.2h1.6v1.6h-1.6Zm0,3.2h1.6v1.6h-1.6Zm0,3.2h1.6v1.6h-1.6ZM122.624,3.2h1.6v1.6h-1.6Zm0,3.2h1.6v1.6h-1.6Zm0,3.2h1.6v1.6h-1.6Zm0,3.2h1.6v1.6h-1.6Zm0,3.2h1.6v1.6h-1.6Z" transform="translate(-109.854)" fill="#d12026"/>
  </g>
</svg>
