<svg xmlns="http://www.w3.org/2000/svg" width="25.587" height="25.641" viewBox="0 0 25.587 25.641">
  <g id="phone-call_3_" data-name="phone-call (3)" transform="translate(-0.539 0)">
    <g id="Group_24" data-name="Group 24" transform="translate(0.539 0)">
      <path id="Path_16" data-name="Path 16" d="M25.455,18.818l-3.578-3.578a2.38,2.38,0,0,0-3.962.895A2.435,2.435,0,0,1,15.1,17.668c-2.556-.639-6.006-3.962-6.645-6.645A2.316,2.316,0,0,1,9.992,8.211a2.38,2.38,0,0,0,.895-3.962L7.308.671a2.552,2.552,0,0,0-3.45,0L1.43,3.1C-1,5.655,1.685,12.428,7.692,18.434S20.471,27.252,23.027,24.7l2.428-2.428A2.552,2.552,0,0,0,25.455,18.818Z" transform="translate(-0.539 0)" fill="#fff"/>
    </g>
  </g>
</svg>
