<svg xmlns="http://www.w3.org/2000/svg" width="152" height="104" viewBox="0 0 152 104">
  <g id="Group_135" data-name="Group 135" transform="translate(-1297 -729)">
    <circle id="Ellipse_41" data-name="Ellipse 41" cx="4" cy="4" r="4" transform="translate(1297 729)" fill="#303030"/>
    <circle id="Ellipse_41-2" data-name="Ellipse 41" cx="4" cy="4" r="4" transform="translate(1321 729)" fill="#303030"/>
    <circle id="Ellipse_41-3" data-name="Ellipse 41" cx="4" cy="4" r="4" transform="translate(1345 729)" fill="#303030"/>
    <circle id="Ellipse_41-4" data-name="Ellipse 41" cx="4" cy="4" r="4" transform="translate(1369 729)" fill="#303030"/>
    <circle id="Ellipse_41-5" data-name="Ellipse 41" cx="4" cy="4" r="4" transform="translate(1393 729)" fill="#303030"/>
    <circle id="Ellipse_41-6" data-name="Ellipse 41" cx="4" cy="4" r="4" transform="translate(1417 729)" fill="#303030"/>
    <circle id="Ellipse_41-7" data-name="Ellipse 41" cx="4" cy="4" r="4" transform="translate(1441 729)" fill="#303030"/>
    <circle id="Ellipse_41-8" data-name="Ellipse 41" cx="4" cy="4" r="4" transform="translate(1297 753)" fill="#303030"/>
    <circle id="Ellipse_41-9" data-name="Ellipse 41" cx="4" cy="4" r="4" transform="translate(1321 753)" fill="#303030"/>
    <circle id="Ellipse_41-10" data-name="Ellipse 41" cx="4" cy="4" r="4" transform="translate(1345 753)" fill="#303030"/>
    <circle id="Ellipse_41-11" data-name="Ellipse 41" cx="4" cy="4" r="4" transform="translate(1369 753)" fill="#303030"/>
    <circle id="Ellipse_41-12" data-name="Ellipse 41" cx="4" cy="4" r="4" transform="translate(1393 753)" fill="#303030"/>
    <circle id="Ellipse_41-13" data-name="Ellipse 41" cx="4" cy="4" r="4" transform="translate(1417 753)" fill="#303030"/>
    <circle id="Ellipse_41-14" data-name="Ellipse 41" cx="4" cy="4" r="4" transform="translate(1441 753)" fill="#303030"/>
    <circle id="Ellipse_41-15" data-name="Ellipse 41" cx="4" cy="4" r="4" transform="translate(1297 777)" fill="#303030"/>
    <circle id="Ellipse_41-16" data-name="Ellipse 41" cx="4" cy="4" r="4" transform="translate(1321 777)" fill="#303030"/>
    <circle id="Ellipse_41-17" data-name="Ellipse 41" cx="4" cy="4" r="4" transform="translate(1345 777)" fill="#303030"/>
    <circle id="Ellipse_41-18" data-name="Ellipse 41" cx="4" cy="4" r="4" transform="translate(1369 777)" fill="#303030"/>
    <circle id="Ellipse_41-19" data-name="Ellipse 41" cx="4" cy="4" r="4" transform="translate(1393 777)" fill="#303030"/>
    <circle id="Ellipse_41-20" data-name="Ellipse 41" cx="4" cy="4" r="4" transform="translate(1417 777)" fill="#303030"/>
    <circle id="Ellipse_41-21" data-name="Ellipse 41" cx="4" cy="4" r="4" transform="translate(1441 777)" fill="#303030"/>
    <circle id="Ellipse_41-22" data-name="Ellipse 41" cx="4" cy="4" r="4" transform="translate(1297 801)" fill="#303030"/>
    <circle id="Ellipse_41-23" data-name="Ellipse 41" cx="4" cy="4" r="4" transform="translate(1321 801)" fill="#303030"/>
    <circle id="Ellipse_41-24" data-name="Ellipse 41" cx="4" cy="4" r="4" transform="translate(1345 801)" fill="#303030"/>
    <circle id="Ellipse_41-25" data-name="Ellipse 41" cx="4" cy="4" r="4" transform="translate(1369 801)" fill="#303030"/>
    <circle id="Ellipse_41-26" data-name="Ellipse 41" cx="4" cy="4" r="4" transform="translate(1393 801)" fill="#303030"/>
    <circle id="Ellipse_41-27" data-name="Ellipse 41" cx="4" cy="4" r="4" transform="translate(1417 801)" fill="#303030"/>
    <circle id="Ellipse_41-28" data-name="Ellipse 41" cx="4" cy="4" r="4" transform="translate(1441 801)" fill="#303030"/>
    <circle id="Ellipse_41-29" data-name="Ellipse 41" cx="4" cy="4" r="4" transform="translate(1297 825)" fill="#303030"/>
    <circle id="Ellipse_41-30" data-name="Ellipse 41" cx="4" cy="4" r="4" transform="translate(1321 825)" fill="#303030"/>
    <circle id="Ellipse_41-31" data-name="Ellipse 41" cx="4" cy="4" r="4" transform="translate(1345 825)" fill="#303030"/>
    <circle id="Ellipse_41-32" data-name="Ellipse 41" cx="4" cy="4" r="4" transform="translate(1369 825)" fill="#303030"/>
    <circle id="Ellipse_41-33" data-name="Ellipse 41" cx="4" cy="4" r="4" transform="translate(1393 825)" fill="#303030"/>
    <circle id="Ellipse_41-34" data-name="Ellipse 41" cx="4" cy="4" r="4" transform="translate(1417 825)" fill="#303030"/>
    <circle id="Ellipse_41-35" data-name="Ellipse 41" cx="4" cy="4" r="4" transform="translate(1441 825)" fill="#303030"/>
  </g>
</svg>
