<svg xmlns="http://www.w3.org/2000/svg" width="51.69" height="63.348" viewBox="0 0 51.69 63.348">
  <g id="sprout" transform="translate(-47.113)">
    <path id="Path_24" data-name="Path 24" d="M0,0H1.856V1.856H0Z" transform="matrix(0.6, -0.8, 0.8, 0.6, 79.475, 31.944)" fill="#fbc90b"/>
    <path id="Path_25" data-name="Path 25" d="M0,0H1.856V1.856H0Z" transform="matrix(0.8, -0.6, 0.6, 0.8, 63.835, 25.63)" fill="#fbc90b"/>
    <path id="Path_26" data-name="Path 26" d="M248.5,497h1.856v1.856H248.5Z" transform="translate(-176.47 -435.508)" fill="#fbc90b"/>
    <path id="Path_27" data-name="Path 27" d="M95.344,61.492a49.44,49.44,0,0,1-5.056-3.63c-4.221-3.3-8.985-7.022-16.4-7.308V43.079A13.007,13.007,0,0,0,85.945,30.122V25.173h-.928a13,13,0,0,0-11.135,6.3V21.971a10.22,10.22,0,0,0,9.279-10.165V7.786h-.928a10.135,10.135,0,0,0-7.21,3,10.4,10.4,0,0,0-1.141,1.353V6.5a6.5,6.5,0,0,0-6.5-6.5h-.928V2.784a6.506,6.506,0,0,0,5.568,6.43v8.676c0,.034,0,.069,0,.1v7.544a13,13,0,0,0-11.135-6.305h-.928V24.18A13.007,13.007,0,0,0,72.026,37.137v.905c0,.04,0,.08,0,.121V50.548C64.839,50.769,60.7,54,56.322,57.406a54.55,54.55,0,0,1-5.749,4.087h-3.46v1.856H70.174V61.492h-16.2c1.222-.859,2.365-1.749,3.485-2.623,4.487-3.5,8.367-6.514,15.5-6.478,7.315,0,11.824,3.525,16.183,6.933.929.726,1.875,1.466,2.847,2.168H75.742v1.856H98.8V61.492H95.344ZM68.313,2.784V1.949A4.648,4.648,0,0,1,72.025,6.5V7.33a4.647,4.647,0,0,1-3.712-4.546ZM84.089,27.068v3.055a11.152,11.152,0,0,1-9.145,10.956l4.9-6.536-1.485-1.114L73.883,39.4V38.052A11.151,11.151,0,0,1,84.089,27.068ZM76.335,12.1a8.3,8.3,0,0,1,4.97-2.4v2.114a8.363,8.363,0,0,1-7.423,8.3V17.9A8.29,8.29,0,0,1,76.335,12.1ZM61.819,24.18V21.125a11.151,11.151,0,0,1,10.207,11.1V33.46l-4.48-5.973L66.062,28.6l4.9,6.536A11.152,11.152,0,0,1,61.819,24.18Z" transform="translate(0)" fill="#fbc90b"/>
    <path id="Path_28" data-name="Path 28" d="M286.024,445.943h1.856V447.8h-1.856Z" transform="translate(-209.351 -390.768)" fill="#fbc90b"/>
    <path id="Path_29" data-name="Path 29" d="M316.025,460.943h1.856V462.8h-1.856Z" transform="translate(-235.64 -403.912)" fill="#fbc90b"/>
  </g>
</svg>
